<svg xmlns="http://www.w3.org/2000/svg" width="16.787" height="16.785" viewBox="0 0 16.787 16.785"><g transform="translate(-0.106 -0.107)"><path d="M14.837,16.785a1.006,1.006,0,0,1-.715-.3l-4.036-4.038a6.539,6.539,0,0,1-3.305.9H6.775a6.8,6.8,0,0,1-4.748-2.026A6.8,6.8,0,0,1,0,6.573,6.573,6.573,0,0,1,6.573,0a6.8,6.8,0,0,1,4.75,2.026,6.8,6.8,0,0,1,2.027,4.749,6.524,6.524,0,0,1-.954,3.411L16.411,14.2a1.214,1.214,0,0,1,.367.644.724.724,0,0,1-.224.643l-1,1A1.006,1.006,0,0,1,14.837,16.785ZM6.573,2.022a4.549,4.549,0,0,0-4.549,4.55A4.763,4.763,0,0,0,3.457,9.892a4.762,4.762,0,0,0,3.319,1.435,4.559,4.559,0,0,0,4.551-4.551A4.761,4.761,0,0,0,9.892,3.456,4.763,4.763,0,0,0,6.573,2.022Z" transform="translate(0.106 0.107)"/></g></svg>